<svg xmlns="http://www.w3.org/2000/svg" viewBox="0 0 142.85 103.36"><defs><style>.cls-1{fill:#abbcd3;}.cls-2{fill:#4c5389;}.cls-3{fill:#2e3a6d;}.cls-4{fill:#3b447a;}.cls-5{fill:#6773ba;}.cls-6{fill:#61fc54;}.cls-7{fill:#f70d67;}.cls-8{fill:#859cff;}.cls-9{fill:#60fc54;}.cls-10{fill:#ff5f57;}.cls-11{fill:#febc2e;}.cls-12{fill:#29c940;}.cls-13{fill:#000201;}.cls-14,.cls-15{fill:#fff;}.cls-14{opacity:0.45;isolation:isolate;}</style></defs><g id="Layer_2" data-name="Layer 2"><g id="Layer_1-2" data-name="Layer 1"><rect class="cls-1" x="18.1" y="16.88" width="124.75" height="79.97" rx="8.99"/><rect class="cls-2" x="14.11" y="1.21" width="121.37" height="89.17" rx="5.09"/><path class="cls-3" d="M14.11,49.12H135.47v37.8A3.46,3.46,0,0,1,132,90.38H17.57a3.46,3.46,0,0,1-3.46-3.46h0V49.12Z"/><polygon class="cls-4" points="75.58 1.18 58.19 90.41 51.06 90.41 68.46 1.18 75.58 1.18"/><polygon class="cls-4" points="108.67 1.12 91.37 90.35 74.79 90.35 92.19 1.12 108.67 1.12"/><polygon class="cls-4" points="121.08 1.12 103.68 90.35 96.56 90.35 113.96 1.12 121.08 1.12"/><path class="cls-5" d="M23.8,76a1.27,1.27,0,0,1-1.27-1.27V27.06a1.27,1.27,0,0,1,2.54,0V74.7A1.27,1.27,0,0,1,23.8,76Z"/><path class="cls-6" d="M70.84,26.12H29.91a1.21,1.21,0,0,1,0-2.42H70.84a1.21,1.21,0,0,1,0,2.42Z"/><path class="cls-7" d="M56.12,31.33H29.91a1.21,1.21,0,0,1,0-2.42H56.12a1.21,1.21,0,0,1,0,2.42Z"/><path class="cls-8" d="M45.71,36.8H29.91a1.21,1.21,0,0,1,0-2.42h15.8a1.21,1.21,0,1,1,0,2.42Z"/><path class="cls-8" d="M54.5,36.8H50.37a1.21,1.21,0,0,1,0-2.42H54.5a1.21,1.21,0,0,1,0,2.42Z"/><path class="cls-8" d="M65.93,36.8H60.31a1.21,1.21,0,0,1,0-2.42h5.62a1.21,1.21,0,0,1,0,2.42Z"/><path class="cls-6" d="M70.84,46.94H29.91a1.21,1.21,0,1,1,0-2.42H70.84a1.21,1.21,0,1,1,0,2.42Z"/><path class="cls-7" d="M56.12,52.15H29.91a1.21,1.21,0,0,1,0-2.42H56.12a1.21,1.21,0,0,1,0,2.42Z"/><path class="cls-8" d="M45.71,57.63H29.91a1.21,1.21,0,0,1,0-2.42h15.8a1.21,1.21,0,0,1,0,2.42Z"/><path class="cls-8" d="M54.5,57.63H50.37a1.21,1.21,0,0,1,0-2.42H54.5a1.21,1.21,0,0,1,0,2.42Z"/><path class="cls-8" d="M65.93,57.63H60.31a1.21,1.21,0,0,1,0-2.42h5.62a1.21,1.21,0,0,1,0,2.42Z"/><path class="cls-5" d="M70.84,41.93H29.91a1.27,1.27,0,1,1,0-2.54H70.84a1.27,1.27,0,1,1,0,2.54Z"/><path class="cls-5" d="M70.84,62.76H29.91a1.27,1.27,0,1,1,0-2.54H70.84a1.27,1.27,0,0,1,0,2.54Z"/><path class="cls-6" d="M70.84,67.77H29.91a1.21,1.21,0,0,1,0-2.42H70.84a1.21,1.21,0,0,1,0,2.42Z"/><path class="cls-7" d="M56.12,73H29.91a1.21,1.21,0,1,1,0-2.42H56.12a1.21,1.21,0,1,1,0,2.42Z"/><path class="cls-8" d="M45.71,78.45H29.91a1.21,1.21,0,1,1,0-2.42h15.8a1.21,1.21,0,1,1,0,2.42Z"/><path class="cls-8" d="M54.5,78.45H50.37a1.21,1.21,0,1,1,0-2.42H54.5a1.21,1.21,0,1,1,0,2.42Z"/><path class="cls-8" d="M65.93,78.45H60.31a1.21,1.21,0,1,1,0-2.42h5.62a1.21,1.21,0,1,1,0,2.42Z"/><path class="cls-9" d="M125.51,72.42h-21a.65.65,0,0,1,0-1.3h21a.65.65,0,1,1,0,1.3Z"/><path class="cls-9" d="M118,75.09H104.53a.65.65,0,0,1-.65-.65.66.66,0,0,1,.65-.66H118a.66.66,0,0,1,.65.66A.65.65,0,0,1,118,75.09Z"/><path class="cls-9" d="M112.63,77.9h-8.1a.66.66,0,0,1-.65-.66.65.65,0,0,1,.65-.65h8.1a.65.65,0,0,1,.65.65A.66.66,0,0,1,112.63,77.9Z"/><path class="cls-9" d="M117.14,77.9H115a.66.66,0,0,1-.65-.66.65.65,0,0,1,.65-.65h2.12a.65.65,0,0,1,.65.65A.66.66,0,0,1,117.14,77.9Z"/><path class="cls-9" d="M123,77.9h-2.88a.66.66,0,0,1-.66-.66.65.65,0,0,1,.66-.65H123a.65.65,0,0,1,.65.65A.66.66,0,0,1,123,77.9Z"/><path class="cls-9" d="M125.51,60.55h-21a.65.65,0,0,1,0-1.3h21a.65.65,0,1,1,0,1.3Z"/><path class="cls-9" d="M118,63.22H104.53a.65.65,0,0,1,0-1.3H118a.65.65,0,1,1,0,1.3Z"/><path class="cls-9" d="M112.63,66h-8.1a.65.65,0,0,1-.65-.65.66.66,0,0,1,.65-.66h8.1a.66.66,0,0,1,.65.66A.65.65,0,0,1,112.63,66Z"/><path class="cls-9" d="M117.14,66H115a.65.65,0,0,1-.65-.65.66.66,0,0,1,.65-.66h2.12a.66.66,0,0,1,.65.66A.65.65,0,0,1,117.14,66Z"/><path class="cls-9" d="M123,66h-2.88a.65.65,0,0,1-.66-.65.66.66,0,0,1,.66-.66H123a.66.66,0,0,1,.65.66A.65.65,0,0,1,123,66Z"/><path class="cls-9" d="M125.51,36.82h-21a.65.65,0,0,1,0-1.3h21a.65.65,0,1,1,0,1.3Z"/><path class="cls-9" d="M118,39.49H104.53a.65.65,0,0,1,0-1.3H118a.65.65,0,0,1,0,1.3Z"/><path class="cls-9" d="M112.63,42.3h-8.1a.66.66,0,0,1-.65-.66.65.65,0,0,1,.65-.65h8.1a.65.65,0,0,1,.65.65A.66.66,0,0,1,112.63,42.3Z"/><path class="cls-9" d="M117.14,42.3H115a.66.66,0,0,1-.65-.66A.65.65,0,0,1,115,41h2.12a.65.65,0,0,1,.65.65A.66.66,0,0,1,117.14,42.3Z"/><path class="cls-9" d="M123,42.3h-2.88a.66.66,0,0,1-.66-.66.65.65,0,0,1,.66-.65H123a.65.65,0,0,1,.65.65A.66.66,0,0,1,123,42.3Z"/><path class="cls-9" d="M125.51,48.69h-21a.66.66,0,0,1,0-1.31h21a.66.66,0,1,1,0,1.31Z"/><path class="cls-9" d="M118,51.36H104.53a.66.66,0,0,1-.65-.66.65.65,0,0,1,.65-.65H118a.65.65,0,0,1,.65.65A.66.66,0,0,1,118,51.36Z"/><path class="cls-9" d="M112.63,54.16h-8.1a.65.65,0,0,1,0-1.3h8.1a.65.65,0,1,1,0,1.3Z"/><path class="cls-9" d="M117.14,54.16H115a.65.65,0,1,1,0-1.3h2.12a.65.65,0,1,1,0,1.3Z"/><path class="cls-9" d="M123,54.16h-2.88a.65.65,0,1,1,0-1.3H123a.65.65,0,1,1,0,1.3Z"/><path class="cls-9" d="M125.51,25h-21a.66.66,0,0,1-.65-.66.65.65,0,0,1,.65-.65h21a.65.65,0,0,1,.66.65A.66.66,0,0,1,125.51,25Z"/><path class="cls-9" d="M118,27.62H104.53a.65.65,0,0,1,0-1.3H118a.65.65,0,1,1,0,1.3Z"/><path class="cls-9" d="M112.63,30.43h-8.1a.65.65,0,0,1,0-1.3h8.1a.65.65,0,1,1,0,1.3Z"/><path class="cls-9" d="M117.14,30.43H115a.65.65,0,1,1,0-1.3h2.12a.65.65,0,1,1,0,1.3Z"/><path class="cls-9" d="M123,30.43h-2.88a.65.65,0,1,1,0-1.3H123a.65.65,0,1,1,0,1.3Z"/><circle class="cls-10" cx="23.8" cy="7.07" r="2.03"/><circle class="cls-11" cx="30.15" cy="7.07" r="2.03"/><circle class="cls-12" cx="36.49" cy="7.07" r="2.03"/><path class="cls-13" d="M130.39,91.59H19.19a6.3,6.3,0,0,1-6.29-6.3V6.3A6.3,6.3,0,0,1,19.19,0h111.2a6.3,6.3,0,0,1,6.29,6.3v79A6.3,6.3,0,0,1,130.39,91.59ZM19.19,2.42A3.88,3.88,0,0,0,15.32,6.3v79a3.88,3.88,0,0,0,3.87,3.88h111.2a3.88,3.88,0,0,0,3.87-3.88V6.3a3.88,3.88,0,0,0-3.87-3.88Z"/><path class="cls-13" d="M41.75,14.17H14.82a.75.75,0,0,1,0-1.5H41.75a.75.75,0,1,1,0,1.5Z"/><path class="cls-13" d="M134.55,14.17H48.7a.75.75,0,0,1,0-1.5h85.85a.75.75,0,0,1,0,1.5Z"/><rect class="cls-14" x="0.91" y="63.07" width="53.6" height="39.38" rx="2.25"/><path class="cls-13" d="M54.09,71.8H14.38a.91.91,0,0,1,0-1.81H54.09a.91.91,0,1,1,0,1.81Z"/><circle class="cls-10" cx="5.19" cy="67.01" r="0.9"/><circle class="cls-11" cx="7.99" cy="67.01" r="0.9"/><circle class="cls-12" cx="10.79" cy="67.01" r="0.9"/><polygon class="cls-15" points="44.45 63.08 36.81 102.45 29.5 102.45 37.17 63.08 44.45 63.08"/><polygon class="cls-15" points="49.92 63.08 42.25 102.45 39.1 102.45 46.78 63.08 49.92 63.08"/><path class="cls-13" d="M9,71.8H1.22a.91.91,0,0,1,0-1.81H9A.91.91,0,1,1,9,71.8Z"/><path class="cls-13" d="M52.26,103.36H3.15A3.16,3.16,0,0,1,0,100.21V65.32a3.15,3.15,0,0,1,3.15-3.15H52.26a3.16,3.16,0,0,1,3.15,3.15v34.89A3.16,3.16,0,0,1,52.26,103.36ZM3.15,64a1.34,1.34,0,0,0-1.34,1.34v34.89a1.34,1.34,0,0,0,1.34,1.34H52.26a1.34,1.34,0,0,0,1.34-1.34V65.32A1.34,1.34,0,0,0,52.26,64Z"/></g></g></svg>